<?xml version="1.0" standalone="no"?>
<!DOCTYPE svg PUBLIC "-//W3C//DTD SVG 20010904//EN"
 "http://www.w3.org/TR/2001/REC-SVG-20010904/DTD/svg10.dtd">
<svg version="1.0" xmlns="http://www.w3.org/2000/svg"
 width="152.000000pt" height="47.000000pt" viewBox="0 0 152.000000 47.000000"
 preserveAspectRatio="xMidYMid meet">

<g transform="translate(0.000000,47.000000) scale(0.100000,-0.100000)"
fill="#000000" stroke="none">
<path d="M550 225 c0 -41 3 -75 8 -75 4 0 6 31 4 70 l-4 70 41 0 c43 0 71 -25
71 -65 0 -29 -26 -63 -53 -68 l-22 -4 23 -2 c33 -2 62 33 62 74 0 48 -31 75
-87 75 l-43 0 0 -75z"/>
<path d="M722 223 c1 -43 3 -61 5 -41 4 33 8 37 36 41 l32 4 -32 1 c-29 2 -33
5 -33 31 0 26 4 30 33 34 31 4 31 4 -5 5 l-38 2 2 -77z"/>
<path d="M847 282 c-10 -11 -17 -35 -17 -60 0 -32 6 -45 26 -61 15 -12 34 -21
44 -21 20 0 74 39 65 48 -3 3 -11 -3 -19 -13 -18 -25 -74 -24 -92 0 -20 27
-17 79 4 98 23 21 66 22 86 2 22 -22 32 -18 11 5 -24 26 -86 27 -108 2z"/>
<path d="M1000 226 c0 -44 4 -76 10 -76 6 0 10 16 10 35 0 32 3 35 29 35 16 0
34 -6 40 -14 14 -17 5 -43 -17 -49 -15 -4 -15 -5 -1 -6 9 0 22 6 29 14 13 16
5 55 -12 55 -7 0 -6 5 2 14 6 8 10 25 8 38 -3 20 -10 23 -50 26 l-48 3 0 -75z
m85 34 c0 -21 -5 -26 -32 -28 -31 -3 -33 -1 -33 28 0 29 2 31 33 28 27 -2 32
-7 32 -28z"/>
<path d="M1181 278 c-43 -111 -50 -131 -38 -115 18 22 97 24 97 2 0 -8 4 -15
10 -15 5 0 0 24 -11 53 -12 28 -25 62 -30 75 -5 12 -11 22 -14 22 -3 0 -9 -10
-14 -22z m48 -80 c1 -5 -15 -8 -34 -8 -19 0 -35 2 -35 5 0 2 8 24 17 47 l17
42 17 -40 c10 -21 18 -42 18 -46z"/>
<path d="M1290 285 c-18 -22 -6 -42 37 -62 41 -20 50 -48 21 -66 -13 -9 -22
-7 -37 7 -12 11 -21 14 -21 7 0 -6 11 -16 24 -22 33 -15 66 4 66 37 0 21 -8
29 -40 41 -30 12 -40 22 -40 39 0 12 6 25 13 27 7 4 8 6 1 6 -6 1 -17 -6 -24
-14z"/>
<path d="M1354 285 c8 -8 18 -15 22 -15 3 0 1 7 -6 15 -7 8 -17 15 -22 15 -5
0 -3 -7 6 -15z"/>
<path d="M1422 223 c1 -43 3 -61 5 -41 4 33 8 37 36 41 l32 4 -32 1 c-29 2
-33 5 -33 31 0 26 4 30 33 34 31 4 31 4 -5 5 l-38 2 2 -77z"/>
</g>
</svg>
